<svg width="37" height="38" viewBox="0 0 37 38" fill="none" xmlns="http://www.w3.org/2000/svg">
<path d="M16.7441 5.35678C17.4671 3.11954 17.8286 2 18.5 2C19.1713 2 19.5328 3.11954 20.2558 5.35678L22.6978 12.9224C22.897 13.5385 22.9966 13.8465 23.24 14.0235C23.4817 14.2006 23.8063 14.2006 24.4537 14.2006H31.2465C33.5926 14.2006 34.7656 14.2006 34.9722 14.8388C35.1787 15.4769 34.2289 16.1649 32.3273 17.5389L26.5028 21.7515C25.979 22.1315 25.7171 22.3214 25.623 22.6055C25.5308 22.8913 25.6304 23.1975 25.8277 23.8135L28.2955 31.4456C29.0093 33.6589 29.3653 34.7655 28.8267 35.1565C28.2844 35.5494 27.3438 34.8706 25.4588 33.5076L19.5808 29.26C19.0588 28.8837 18.7988 28.6956 18.5 28.6956C18.2012 28.6956 17.9411 28.8837 17.4192 29.26L11.5411 33.5076C9.65616 34.8688 8.71552 35.5494 8.17327 35.1565C7.63287 34.7636 7.99068 33.6589 8.70445 31.4456L11.1722 23.8135C11.3696 23.1975 11.4692 22.8913 11.3751 22.6055C11.2829 22.3214 11.021 22.1315 10.4972 21.7515L4.67263 17.5389C2.77291 16.1649 1.82121 15.4769 2.02778 14.8388C2.23435 14.2006 3.40738 14.2006 5.75344 14.2006H12.5463C13.1937 14.2006 13.5183 14.2006 13.7599 14.0235C14.0034 13.8465 14.103 13.5385 14.3022 12.9224L16.7441 5.35678Z" stroke="black" stroke-width="4" stroke-linecap="round" stroke-linejoin="round"/>
</svg>
