<svg width="23" height="23" viewBox="0 0 23 23" fill="none" xmlns="http://www.w3.org/2000/svg">
<path id="Vector" d="M10.3073 3.11899C10.7637 1.70672 10.9919 1 11.4157 1C11.8395 1 12.0677 1.70672 12.5241 3.11899L14.0656 7.89485C14.1913 8.28372 14.2542 8.47816 14.4079 8.58993C14.5604 8.7017 14.7653 8.7017 15.174 8.7017H19.462C20.943 8.7017 21.6835 8.7017 21.8139 9.10454C21.9443 9.50738 21.3447 9.94166 20.1443 10.809L16.4675 13.4683C16.1369 13.7081 15.9715 13.828 15.9121 14.0073C15.8539 14.1878 15.9168 14.381 16.0414 14.7699L17.5992 19.5877C18.0498 20.9848 18.2745 21.6834 17.9345 21.9302C17.5922 22.1782 16.9984 21.7498 15.8085 20.8894L12.098 18.208C11.7685 17.9705 11.6043 17.8518 11.4157 17.8518C11.2271 17.8518 11.0629 17.9705 10.7334 18.208L7.02288 20.8894C5.83299 21.7486 5.23921 22.1782 4.89691 21.9302C4.55578 21.6822 4.78165 20.9848 5.23222 19.5877L6.79003 14.7699C6.91461 14.381 6.97748 14.1878 6.9181 14.0073C6.85988 13.828 6.69456 13.7081 6.3639 13.4683L2.68711 10.809C1.48791 9.94166 0.887138 9.50738 1.01754 9.10454C1.14794 8.7017 1.88842 8.7017 3.36938 8.7017H7.65741C8.06608 8.7017 8.27099 8.7017 8.42351 8.58993C8.57719 8.47816 8.64007 8.28372 8.76581 7.89485L10.3073 3.11899Z" stroke="black" stroke-width="1.5" stroke-linecap="round" stroke-linejoin="round"/>
</svg>
