<svg width="36" height="24" viewBox="0 0 36 24" fill="none" xmlns="http://www.w3.org/2000/svg">
<g id="&#240;&#159;&#166;&#134; icon &#34;email&#34;">
<g id="Group">
<path id="Vector" d="M10.4444 1H25.5556C28.2793 1 30.1342 1.00309 31.5226 1.15469C32.8561 1.30318 33.4738 1.56151 33.8931 1.90646C34.3143 2.24986 34.6298 2.75723 34.8092 3.84776C34.9962 4.98471 35 6.50372 35 8.73429V14.9217C35 17.1538 34.9962 18.6713 34.8111 19.8082C34.6298 20.9003 34.3143 21.4061 33.8931 21.7495C33.4738 22.0945 32.8542 22.3528 31.5226 22.4998C30.1342 22.6529 28.2812 22.656 25.5556 22.656H10.4444C7.72067 22.656 5.86578 22.6529 4.47744 22.5013C3.14389 22.3528 2.52622 22.0945 2.10689 21.7495C1.68567 21.4061 1.37022 20.8988 1.19078 19.8082C1.00378 18.6713 1 17.1538 1 14.9217V8.73429C1 6.50372 1.00378 4.98471 1.18889 3.84776C1.37022 2.75568 1.68567 2.24986 2.10689 1.90646C2.52622 1.56151 3.14578 1.30318 4.47744 1.15623C5.86578 1.00309 7.72067 1 10.4444 1Z" stroke="black" stroke-width="1.5"/>
<path id="Vector_2" d="M2.88892 2.54688L13.4667 9.04368C15.6502 10.3848 16.7401 11.0546 18 11.0546C19.2599 11.0546 20.3498 10.3848 22.5334 9.04368L33.1111 2.54688" stroke="black" stroke-width="1.5"/>
</g>
</g>
</svg>
