<svg width="26" height="26" viewBox="0 0 26 26" fill="none" xmlns="http://www.w3.org/2000/svg">
<g id="&#240;&#159;&#166;&#134; icon &#34;house&#34;">
<path id="Vector" d="M21.5556 10.7656V19.3212H24V10.7656H21.5556ZM17.8889 22.9878H8.11111V25.4323H17.8889V22.9878ZM4.44445 19.3212V10.7656H2.00001V19.3212H4.44445ZM8.11111 22.9878C6.92434 22.9878 6.15678 22.9854 5.59211 22.9096C5.06167 22.8375 4.89545 22.7226 4.80256 22.6297L3.07434 24.358C3.69767 24.9813 4.46523 25.2245 5.26578 25.3321C6.03334 25.4347 6.99278 25.4323 8.11111 25.4323V22.9878ZM2.00001 19.3212C2.00001 20.4395 1.99756 21.4002 2.10023 22.1665C2.20778 22.9671 2.451 23.7358 3.07434 24.358L4.80256 22.6297C4.70967 22.5368 4.59478 22.3706 4.52267 21.8402C4.44689 21.2767 4.44445 20.508 4.44445 19.3212H2.00001ZM21.5556 19.3212C21.5556 20.508 21.5531 21.2755 21.4773 21.8402C21.4052 22.3706 21.2903 22.5368 21.1974 22.6297L22.9257 24.358C23.549 23.7346 23.7922 22.9671 23.8998 22.1665C24.0024 21.399 24 20.4395 24 19.3212H21.5556ZM17.8889 25.4323C19.0072 25.4323 19.9679 25.4347 20.7342 25.3321C21.5348 25.2245 22.3036 24.9813 22.9257 24.358L21.1974 22.6297C21.1046 22.7226 20.9383 22.8375 20.4079 22.9096C19.8432 22.9854 19.0757 22.9878 17.8889 22.9878V25.4323Z" fill="black"/>
<path id="Vector_2" d="M2 11.988L9.54355 4.44444C11.1728 2.81522 11.988 2 13 2C14.012 2 14.8272 2.81522 16.4564 4.44444L24 11.988" stroke="black" stroke-width="3" stroke-linecap="round"/>
<path id="Vector_3" d="M9.33331 19.3213C9.33331 18.1822 9.33331 17.6126 9.51909 17.1641C9.64194 16.8673 9.82207 16.5977 10.0492 16.3705C10.2763 16.1434 10.546 15.9633 10.8428 15.8404C11.2913 15.6546 11.8609 15.6546 13 15.6546C14.1391 15.6546 14.7086 15.6546 15.1572 15.8404C15.454 15.9633 15.7236 16.1434 15.9508 16.3705C16.1779 16.5977 16.358 16.8673 16.4809 17.1641C16.6666 17.6126 16.6666 18.1822 16.6666 19.3213V24.2102H9.33331V19.3213ZM17.8889 4.04354C17.8889 3.47398 17.8889 3.1892 17.9818 2.96432C18.1061 2.66543 18.3439 2.42807 18.643 2.30432C18.8679 2.2102 19.1526 2.21021 19.7222 2.21021C20.2918 2.21021 20.5765 2.21021 20.8014 2.30309C21.1003 2.42741 21.3377 2.66521 21.4614 2.96432C21.5555 3.1892 21.5555 3.47398 21.5555 4.04354V10.7658L17.8889 6.48798V4.04354Z" fill="black"/>
</g>
</svg>
