<svg width="42" height="50" viewBox="0 0 42 50" fill="none" xmlns="http://www.w3.org/2000/svg">
<path d="M39.4593 46.7608V43.2364C39.4593 40.8617 39.4593 39.6756 39.1846 38.7058C38.8459 37.505 38.2048 36.4112 37.3227 35.529C36.4405 34.6468 35.3467 34.0058 34.1459 33.6671C33.1761 33.3924 31.99 33.3924 29.6153 33.3924H12.844C10.4693 33.3924 9.28315 33.3924 8.31333 33.6671C7.11257 34.0058 6.01879 34.6468 5.1366 35.529C4.25441 36.4112 3.61332 37.505 3.27466 38.7058C3 39.6756 3 40.8617 3 43.2364V46.7608M32.6535 12.878C32.6535 18.3348 28.084 22.7585 22.4449 22.7585C16.8059 22.7585 12.2363 18.3348 12.2363 12.878C12.2363 7.42129 16.8059 3 22.4449 3C28.084 3 32.6535 7.42372 32.6535 12.878Z" stroke="black" stroke-width="5" stroke-linecap="round" stroke-linejoin="round"/>
</svg>
