<svg width="18" height="36" viewBox="0 0 18 36" fill="none" xmlns="http://www.w3.org/2000/svg">
<path d="M5.39998 15.5285H7.19998C7.20014 15.1849 7.10192 14.8483 6.91691 14.5587C6.73191 14.2691 6.46787 14.0385 6.15598 13.8942L5.39998 15.5285ZM5.39998 30.5999H3.59999C3.60009 31.0772 3.7898 31.535 4.12739 31.8725L5.39998 30.5999ZM8.99997 34.1999L7.72737 35.4725C8.04499 35.7899 8.46979 35.9772 8.91838 35.9975C9.36697 36.0178 9.80696 35.8697 10.152 35.5823L8.99997 34.1999ZM14.4 29.6999L15.5519 31.0823C15.8933 30.798 16.1174 30.3975 16.1812 29.9578C16.245 29.5182 16.1439 29.0705 15.8975 28.7009L14.4 29.6999ZM12.6 26.9999H10.8C10.7999 27.3555 10.9051 27.7031 11.1024 27.9989L12.6 26.9999ZM12.6 23.3999L11.3274 22.1273C10.9898 22.4648 10.8001 22.9226 10.8 23.3999H12.6ZM15.2999 20.6999L16.5725 21.9725C16.91 21.635 17.0996 21.1772 17.0996 20.6999C17.0996 20.2226 16.91 19.7649 16.5725 19.4273L15.2999 20.6999ZM12.6 17.9999H10.8C10.8001 18.4773 10.9898 18.935 11.3274 19.2725L12.6 17.9999ZM12.6 15.5285L11.754 13.9374C11.4657 14.0908 11.2247 14.3198 11.0566 14.5998C10.8886 14.8798 10.7999 15.2002 10.8 15.5267L12.6 15.5285ZM3.59999 8.99997C3.59999 7.56781 4.16891 6.1943 5.18161 5.18161C6.1943 4.16891 7.56781 3.59999 8.99997 3.59999V0C6.61303 0 4.32385 0.948208 2.63603 2.63603C0.948208 4.32385 0 6.61303 0 8.99997H3.59999ZM8.99997 3.59999C10.4321 3.59999 11.8056 4.16891 12.8183 5.18161C13.831 6.1943 14.4 7.56781 14.4 8.99997H17.9999C17.9999 6.61303 17.0517 4.32385 15.3639 2.63603C13.6761 0.948208 11.3869 0 8.99997 0V3.59999ZM3.59999 15.5285V30.5999H7.19998V15.5285H3.59999ZM4.12739 31.8725L7.72737 35.4725L10.2726 32.9273L6.67258 29.3273L4.12739 31.8725ZM10.152 35.5823L15.5519 31.0823L13.248 28.3175L7.84797 32.8175L10.152 35.5823ZM15.8975 28.7009L14.0976 26.0009L11.1024 27.9989L12.9024 30.6989L15.8975 28.7009ZM14.4 26.9999V23.3999H10.8V26.9999H14.4ZM13.8726 24.6725L16.5725 21.9725L14.0274 19.4273L11.3274 22.1273L13.8726 24.6725ZM16.5725 19.4273L13.8726 16.7273L11.3274 19.2725L14.0274 21.9725L16.5725 19.4273ZM14.4 17.9999V15.5285L10.8 15.5267V17.9999H14.4ZM5.39998 15.5285L6.15598 13.8942H6.15958L6.16138 13.8978H6.16678L6.17398 13.9032C6.17758 13.9032 6.17758 13.9032 6.17398 13.9032C6.06495 13.8441 5.9592 13.7792 5.85718 13.7088C5.52339 13.4768 5.21932 13.2048 4.95178 12.8988C4.30379 12.1608 3.59999 10.9404 3.59999 8.99997H0C0 11.9232 1.098 13.9662 2.24819 15.2747C2.81339 15.9191 3.38219 16.3745 3.81779 16.6751C4.06943 16.8482 4.3322 17.0046 4.60438 17.1431L4.62778 17.1539L4.63678 17.1575L4.64038 17.1593H4.64219C4.64219 17.1593 4.64398 17.1611 5.39998 15.5285ZM14.4 8.99997C14.4 10.7964 13.7106 12.0276 13.032 12.8268C12.6749 13.2432 12.261 13.6074 11.8026 13.9086C11.7836 13.9209 11.7643 13.9329 11.745 13.9446L11.7504 13.941C11.7515 13.9403 11.7527 13.9397 11.754 13.9392L12.6 15.5285L13.446 17.1161L13.4514 17.1125L13.4604 17.1089C13.4861 17.0955 13.5113 17.0811 13.536 17.0657C13.7783 16.9232 14.0126 16.7676 14.238 16.5995C14.6609 16.2845 15.2153 15.8111 15.7679 15.1631C16.8911 13.8492 17.9999 11.8188 17.9999 8.99997H14.4ZM10.35 7.64997C10.35 8.00802 10.2077 8.35139 9.95456 8.60457C9.70139 8.85774 9.35801 8.99997 8.99997 8.99997C8.64193 8.99997 8.29855 8.85774 8.04538 8.60457C7.79221 8.35139 7.64997 8.00802 7.64997 7.64997C7.64997 7.29193 7.79221 6.94856 8.04538 6.69538C8.29855 6.44221 8.64193 6.29998 8.99997 6.29998C9.35801 6.29998 9.70139 6.44221 9.95456 6.69538C10.2077 6.94856 10.35 7.29193 10.35 7.64997Z" fill="black"/>
</svg>
