<svg width="60" height="48" viewBox="0 0 60 48" fill="none" xmlns="http://www.w3.org/2000/svg">
<path d="M33.0832 45.3372H15.4495C9.81265 45.3372 6.99723 45.3372 5.24581 43.5858C3.49438 41.8343 3.49438 39.0189 3.49438 33.3821V15.4495C3.49438 9.81265 3.49438 6.99723 5.24581 5.2458C6.99723 3.49438 9.81265 3.49438 15.4495 3.49438H45.3372C50.974 3.49438 53.7894 3.49438 55.5409 5.2458C57.2923 6.99723 57.2923 9.81265 57.2923 15.4495V21.427" stroke="black" stroke-width="5" stroke-linecap="round" stroke-linejoin="round"/>
<path d="M48.3261 27.4046V45.3372M57.2924 36.3709H39.3597" stroke="black" stroke-width="5" stroke-linecap="round"/>
<path d="M31.2003 3.49439C31.2003 3.09805 31.0429 2.71795 30.7626 2.4377C30.4824 2.15744 30.1023 2 29.7059 2C29.3096 2 28.9295 2.15744 28.6492 2.4377C28.369 2.71795 28.2115 3.09805 28.2115 3.49439H31.2003ZM28.2115 45.3372C28.2115 45.7335 28.369 46.1136 28.6492 46.3939C28.9295 46.6741 29.3096 46.8316 29.7059 46.8316C30.1023 46.8316 30.4824 46.6741 30.7626 46.3939C31.0429 46.1136 31.2003 45.7335 31.2003 45.3372H28.2115ZM35.2202 31.8877C35.6165 31.8877 35.9966 31.7303 36.2769 31.45C36.5571 31.1698 36.7146 30.7897 36.7146 30.3933C36.7146 29.997 36.5571 29.6169 36.2769 29.3366C35.9966 29.0564 35.6165 28.8989 35.2202 28.8989V31.8877ZM3.49439 28.8989C3.09805 28.8989 2.71795 29.0564 2.4377 29.3366C2.15744 29.6169 2 29.997 2 30.3933C2 30.7897 2.15744 31.1698 2.4377 31.45C2.71795 31.7303 3.09805 31.8877 3.49439 31.8877V28.8989ZM57.2923 19.9326C57.6886 19.9326 58.0687 19.7752 58.349 19.4949C58.6292 19.2147 58.7867 18.8346 58.7867 18.4382C58.7867 18.0419 58.6292 17.6618 58.349 17.3816C58.0687 17.1013 57.6886 16.9439 57.2923 16.9439V19.9326ZM3.49439 16.9439C3.09805 16.9439 2.71795 17.1013 2.4377 17.3816C2.15744 17.6618 2 18.0419 2 18.4382C2 18.8346 2.15744 19.2147 2.4377 19.4949C2.71795 19.7752 3.09805 19.9326 3.49439 19.9326V16.9439ZM28.2115 3.49439V45.3372H31.2003V3.49439H28.2115ZM35.2202 28.8989H3.49439V31.8877H35.2202V28.8989ZM57.2923 16.9439H3.49439V19.9326H57.2923V16.9439Z" fill="black"/>
</svg>
