<svg width="74" height="65" viewBox="0 0 74 65" fill="none" xmlns="http://www.w3.org/2000/svg">
<path d="M3.66094 25.6266C2.69 25.6266 1.75882 26.0123 1.07226 26.6989C0.385705 27.3854 0 28.3166 0 29.2875C0 30.2585 0.385705 31.1896 1.07226 31.8762C1.75882 32.5628 2.69 32.9485 3.66094 32.9485V25.6266ZM69.5579 32.9485C70.5288 32.9485 71.46 32.5628 72.1466 31.8762C72.8331 31.1896 73.2188 30.2585 73.2188 29.2875C73.2188 28.3166 72.8331 27.3854 72.1466 26.6989C71.46 26.0123 70.5288 25.6266 69.5579 25.6266V32.9485ZM3.66094 0C2.69 0 1.75882 0.385706 1.07226 1.07227C0.385705 1.75883 0 2.69 0 3.66094C0 4.63188 0.385705 5.56306 1.07226 6.24962C1.75882 6.93618 2.69 7.32188 3.66094 7.32188V0ZM69.5579 7.32188C70.5288 7.32188 71.46 6.93618 72.1466 6.24962C72.8331 5.56306 73.2188 4.63188 73.2188 3.66094C73.2188 2.69 72.8331 1.75883 72.1466 1.07227C71.46 0.385706 70.5288 0 69.5579 0V7.32188ZM3.66094 51.2532C2.69 51.2532 1.75882 51.6389 1.07226 52.3254C0.385705 53.012 0 53.9432 0 54.9141C0 55.8851 0.385705 56.8162 1.07226 57.5028C1.75882 58.1894 2.69 58.5751 3.66094 58.5751V51.2532ZM36.6094 58.5751C37.5804 58.5751 38.5115 58.1894 39.1981 57.5028C39.8846 56.8162 40.2704 55.8851 40.2704 54.9141C40.2704 53.9432 39.8846 53.012 39.1981 52.3254C38.5115 51.6389 37.5804 51.2532 36.6094 51.2532V58.5751ZM3.66094 32.9485H69.5579V25.6266H3.66094V32.9485ZM3.66094 7.32188H69.5579V0H3.66094V7.32188ZM3.66094 58.5751H36.6094V51.2532H3.66094V58.5751Z" fill="black"/>
<path d="M60.4055 43.9313V62.236M69.5579 53.0836H51.2532" stroke="black" stroke-width="5" stroke-linecap="round"/>
</svg>
