<svg width="55" height="54" viewBox="0 0 55 54" fill="none" xmlns="http://www.w3.org/2000/svg">
<path d="M22.6347 27.6784C22.3775 27.9268 22.1724 28.2239 22.0313 28.5523C21.8902 28.8808 21.816 29.2341 21.8128 29.5915C21.8097 29.949 21.8779 30.3035 22.0132 30.6344C22.1486 30.9653 22.3485 31.2659 22.6013 31.5187C22.8541 31.7714 23.1547 31.9714 23.4855 32.1067C23.8164 32.2421 24.1709 32.3102 24.5284 32.3071C24.8859 32.304 25.2392 32.2297 25.5676 32.0886C25.8961 31.9475 26.1932 31.7424 26.4415 31.4853L22.6347 27.6784ZM45.2874 12.6394L47.1908 10.736L43.384 6.92912L41.4805 8.83255L45.2874 12.6394ZM46.8651 3.44802L44.9616 5.35145L48.7685 9.15832L50.6719 7.25488L46.8651 3.44802ZM53.3642 4.56262C53.8546 4.05485 54.126 3.37478 54.1199 2.66887C54.1137 1.96297 53.8306 1.28772 53.3314 0.788547C52.8322 0.289379 52.157 0.00623589 51.4511 0.000101775C50.7452 -0.00603234 50.0651 0.265333 49.5573 0.755751L53.3642 4.56262ZM26.4415 31.4853L45.2874 12.6394L41.4805 8.83255L22.6347 27.6784L26.4415 31.4853ZM50.6719 7.25488L53.3642 4.56262L49.5573 0.755751L46.8651 3.44802L50.6719 7.25488Z" fill="black"/>
<path d="M21.8459 13.4283H13.7691C8.69145 13.4283 6.15534 13.4283 4.57767 15.0059C3 16.5836 3 19.1197 3 24.1973V40.3509C3 45.4285 3 47.9647 4.57767 49.5423C6.15534 51.12 8.69145 51.12 13.7691 51.12H29.9227C35.0003 51.12 37.5364 51.12 39.1141 49.5423C40.6917 47.9647 40.6917 45.4285 40.6917 40.3509V32.2741" stroke="black" stroke-width="5" stroke-linecap="round"/>
</svg>
