<svg width="43" height="43" viewBox="0 0 43 43" fill="none" xmlns="http://www.w3.org/2000/svg">
<path fill-rule="evenodd" clip-rule="evenodd" d="M40.3125 32.25C40.3125 32.5228 40.2601 32.7808 40.1848 33.0267L28.2188 20.1562L40.3125 10.75V32.25ZM4.77837 34.865L16.9044 21.9434L21.5 25.417L25.8968 21.9219L38.2216 34.865C38.0295 34.9093 4.97053 34.9093 4.77837 34.865ZM2.6875 32.25V10.75L14.7812 20.1562L2.81516 33.0267C2.73991 32.7808 2.6875 32.5228 2.6875 32.25ZM38.9688 8.0625L21.5 21.5L4.03125 8.0625H38.9688ZM37.625 5.375H5.375C2.40666 5.375 0 7.78166 0 10.75V32.25C0 35.2183 2.40666 37.625 5.375 37.625H37.625C40.5933 37.625 43 35.2183 43 32.25V10.75C43 7.78166 40.5933 5.375 37.625 5.375Z" fill="black"/>
</svg>
