<svg width="41" height="34" viewBox="0 0 41 34" fill="none" xmlns="http://www.w3.org/2000/svg">
<path d="M4.26798 15.0652C4.26798 15.0652 20.6325 8.47945 26.308 6.1606C28.4835 5.23306 35.8617 2.26478 35.8617 2.26478C35.8617 2.26478 39.267 0.96642 38.9832 4.11986C38.8885 5.41847 38.1317 9.96346 37.375 14.8795C36.24 21.8363 35.0102 29.4421 35.0102 29.4421C35.0102 29.4421 34.8212 31.5755 33.2132 31.9466C31.605 32.3176 28.9565 30.6479 28.4835 30.2769C28.1052 29.9985 21.3892 25.8246 18.93 23.7841C18.2677 23.2276 17.511 22.1144 19.0245 20.8158C22.4297 17.7551 26.4972 13.952 28.9565 11.5404C30.0915 10.4272 31.2267 7.83002 26.4972 10.9837C19.7812 15.5287 13.1597 19.7956 13.1597 19.7956C13.1597 19.7956 11.6465 20.7231 8.80872 19.8883C5.97097 19.0535 2.66023 17.9405 2.66023 17.9405C2.66023 17.9405 0.390229 16.5489 4.26848 15.0652H4.26798Z" stroke="black" stroke-width="2.5"/>
</svg>
