<svg width="47" height="27" viewBox="0 0 47 27" fill="none" xmlns="http://www.w3.org/2000/svg">
<path d="M28.4599 12.9874C27.6005 12.6683 27.6005 11.4493 27.5472 10.6005C27.3324 7.57694 28.4066 2.96096 27.1175 0.998445C26.2048 -0.169556 21.7994 -0.0626029 19.1146 0.0969786C18.3618 0.203932 17.4491 0.361817 16.8045 0.68098C16.1599 1.00014 15.5154 1.52982 15.5154 2.00686C15.5154 2.69612 17.1276 2.59086 17.7172 3.49233C18.3618 4.44812 18.3618 6.51589 18.3618 8.21357C18.3618 10.1761 18.0386 12.7769 17.2342 12.8822C15.9984 12.9348 15.3005 11.7142 14.656 10.8127C13.3668 9.0624 12.0777 6.88599 11.11 4.76389C10.627 3.65022 10.3571 2.42959 9.6593 1.95254C8.58503 1.20896 6.65134 1.15633 4.77093 1.20896C3.0521 1.26159 0.580411 1.04938 0.097418 2.0578C-0.279007 3.17147 0.527127 4.23252 0.956836 5.13568C3.15866 9.85692 5.52206 13.9959 8.42346 17.9209C11.11 21.5811 13.6333 24.4994 18.5749 26.0375C19.9723 26.4619 26.0948 27.6825 27.3307 26.0375C27.7604 25.4008 27.6538 23.968 27.8686 22.907C28.0835 21.8459 28.3516 20.7849 29.3726 20.7322C30.232 20.6796 30.715 21.4215 31.253 21.9529C31.8443 22.5369 32.3273 23.0139 32.757 23.5453C33.778 24.5537 34.8523 25.9322 36.1414 26.4636C37.9135 27.2072 40.6533 26.995 43.2316 26.888C45.3269 26.8354 46.8308 26.411 46.9924 25.1903C47.1007 24.2345 46.0247 22.856 45.3801 22.0598C43.7679 20.0973 43.0167 19.5133 41.1896 17.7087C40.3835 16.9125 39.3625 16.0636 39.3625 15.1095C39.3092 14.5255 39.7922 13.9959 40.2219 13.4119C42.1023 10.6531 43.9827 8.69061 45.7016 5.82494C46.1846 4.9761 47.3138 3.01359 46.8841 2.0578C46.4011 0.996748 43.7146 1.31421 42.049 1.31421C39.9005 1.31421 37.1074 1.15463 36.5694 1.57905C35.5484 2.26831 35.1187 3.38368 34.6357 4.44473C33.5614 6.88599 32.1107 9.37817 30.6068 11.2354C30.0688 11.8721 29.0495 13.1979 28.4582 12.9857L28.4599 12.9874Z" fill="black"/>
</svg>
